HIERARCHY
ROOT RootJoint
{
    OFFSET   0.000000   0.000000   0.000000
    CHANNELS 6 Xposition Yposition Zposition Xrotation Yrotation Zrotation
    JOINT pelvis_lowerback
    {
        OFFSET   0.000000   0.093605   0.000000
        CHANNELS 3 Xrotation Yrotation Zrotation
        JOINT lowerback_torso
        {
            OFFSET   0.000000   0.100000   0.000000
            CHANNELS 3 Xrotation Yrotation Zrotation
            JOINT torso_head
            {
                OFFSET   0.000000   0.282350   0.000000
                CHANNELS 3 Xrotation Yrotation Zrotation
                End Site
                {
                    OFFSET   0.000000   0.192650   0.000000
                }
            }
            JOINT rTorso_Clavicle
            {
                OFFSET  -0.001000   0.157500   0.000000
                CHANNELS 3 Xrotation Yrotation Zrotation
                JOINT rShoulder
                {
                    OFFSET  -0.117647   0.000000   0.000000
                    CHANNELS 3 Xrotation Yrotation Zrotation
                    JOINT rElbow
                    {
                        OFFSET  -0.245000   0.000000   0.000000
                        CHANNELS 3 Xrotation Yrotation Zrotation
                        JOINT rWrist
                        {
                            OFFSET  -0.240000   0.000000   0.000000
                            CHANNELS 3 Xrotation Yrotation Zrotation
                            End Site
                            {
                                OFFSET  -0.116353  -0.002500   0.000000
                            }
                        }
                    }
                }
            }
            JOINT lTorso_Clavicle
            {
                OFFSET   0.001000   0.157500   0.000000
                CHANNELS 3 Xrotation Yrotation Zrotation
                JOINT lShoulder
                {
                    OFFSET   0.117647   0.000000   0.000000
                    CHANNELS 3 Xrotation Yrotation Zrotation
                    JOINT lElbow
                    {
                        OFFSET   0.245000   0.000000   0.000000
                        CHANNELS 3 Xrotation Yrotation Zrotation
                        JOINT lWrist
                        {
                            OFFSET   0.240000   0.000000   0.000000
                            CHANNELS 3 Xrotation Yrotation Zrotation
                            End Site
                            {
                                OFFSET   0.116353  -0.002500   0.000000
                            }
                        }
                    }
                }
            }
        }
    }
    JOINT rHip
    {
        OFFSET  -0.100000  -0.051395   0.000000
        CHANNELS 3 Xrotation Yrotation Zrotation
        JOINT rKnee
        {
            OFFSET   0.000000  -0.410000   0.000000
            CHANNELS 3 Xrotation Yrotation Zrotation
            JOINT rAnkle
            {
                OFFSET   0.000000  -0.390000   0.000000
                CHANNELS 3 Xrotation Yrotation Zrotation
                JOINT rToeJoint
                {
                    OFFSET   0.000000  -0.050000   0.130000
                    CHANNELS 3 Xrotation Yrotation Zrotation
                    End Site
                    {
                        OFFSET  -0.010000   0.002000   0.060000
                    }
                }
            }
        }
    }
    JOINT lHip
    {
        OFFSET   0.100000  -0.051395   0.000000
        CHANNELS 3 Xrotation Yrotation Zrotation
        JOINT lKnee
        {
            OFFSET   0.000000  -0.410000   0.000000
            CHANNELS 3 Xrotation Yrotation Zrotation
            JOINT lAnkle
            {
                OFFSET   0.000000  -0.390000   0.000000
                CHANNELS 3 Xrotation Yrotation Zrotation
                JOINT lToeJoint
                {
                    OFFSET   0.000000  -0.050000   0.130000
                    CHANNELS 3 Xrotation Yrotation Zrotation
                    End Site
                    {
                        OFFSET   0.010000   0.002000   0.060000
                    }
                }
            }
        }
    }
}
MOTION
Frames: 11
Frame Time:   0.008333
 -2.376719   0.925631   3.975860   0.000000   0.000000   0.000000   0.000000   0.000000   0.000000   0.000000   0.000000   0.000000   0.000000   0.000000   0.000000   0.000000   0.000000   0.000000   0.000000   0.000000   0.000000   0.000000   0.000000   0.000000   0.000000   0.000000   0.000000   0.000000   0.000000   0.000000   0.000000   0.000000   0.000000   0.000000   0.000000   0.000000   0.000000   0.000000   0.000000   0.000000   0.000000   0.000000   0.000000   0.000000   0.000000   0.000000   0.000000   0.000000   0.000000   0.000000   0.000000   0.000000   0.000000   0.000000   0.000000   0.000000   0.000000   0.000000   0.000000   0.000000   0.000000   0.000000   0.000000
 -2.376177   0.926137   3.975283  -1.089859  -0.136461   0.245133   1.438629   0.084206  -0.091147   0.106356  -0.096993  -0.199232  -0.271943   0.059481   0.149632  -0.048739  -0.135926   0.231049   0.963760   0.358510   2.120479   0.018323   0.902473  -0.010938   0.512464  -0.585325  -2.565781  -0.010396   0.225681  -0.326257   0.786289  -0.263764  -1.979299   0.018394  -0.892914   0.009753   0.522695   0.663540   2.604790   0.132059  -0.181236  -0.247943   2.824770  -0.000197  -0.007815   0.054863  -0.344811   0.651453  -0.686049   0.003843   0.004052   0.847300   0.137282  -0.449644   1.298112   0.002295   0.000020  -1.502612   0.404337   0.591974   0.343998  -0.001161   0.001244
 -2.375468   0.927498   3.974352  -2.332739  -0.274469   0.423303   2.937836   0.129507  -0.093013   0.396206  -0.216546  -0.395270  -0.488320   0.113400   0.301654  -0.088325  -0.145935   1.144176   1.892291   0.860879   4.778705   0.043250   1.804062  -0.020294   1.057529  -0.839029  -4.452584  -0.008568   0.308743  -1.434183   1.509024  -0.651040  -4.438062   0.043029  -1.786292   0.018081   1.069071   1.012758   4.419722   0.082003  -0.309966  -0.468587   5.290989  -0.000193  -0.012026  -0.392736  -0.630268   1.130146  -2.291379   0.009122   0.011424   1.838875   0.256869  -0.946456   2.748654   0.005779  -0.000303  -2.908248   0.771452   1.154916   0.605224  -0.001483   0.001837
 -2.374757   0.929054   3.973516  -3.597038  -0.319390   0.589017   4.368029   0.109504  -0.105004   0.730046  -0.381926  -0.584814  -0.671309   0.161518   0.453526  -0.130566  -0.087257   2.475919   2.774772   1.461194   7.791615   0.068099   2.669190  -0.026717   1.595315  -0.904814  -5.543573  -0.008076   0.273277  -2.986173   2.158351  -1.131591  -7.118316   0.067379  -2.654674   0.023853   1.607517   1.126071   5.366637  -0.032207  -0.462553  -0.658568   7.905599  -0.001010  -0.014157  -0.551031  -0.932870   1.632581  -4.350934   0.015298   0.019450   2.895750   0.346916  -1.508487   4.164472   0.009464   0.000064  -4.221931   1.098665   1.686620   0.840682  -0.001459   0.002286
 -2.374099   0.930420   3.972904  -4.808777  -0.349254   0.734345   5.682565   0.069447  -0.124422   1.040064  -0.562654  -0.772697  -0.839696   0.205987   0.597975  -0.177635   0.006822   4.044950   3.608748   2.139120  11.038883   0.089724   3.490573  -0.030457   2.121137  -0.857317  -6.050363  -0.013886   0.173294  -4.783883   2.735162  -1.664531  -9.874245   0.088186  -3.487081   0.027235   2.136296   1.078798   5.693959  -0.149441  -0.661485  -0.817440  10.496712  -0.002401  -0.016433  -0.593263  -1.283915   2.116903  -6.464056   0.019641   0.028351   3.961484   0.417745  -2.106745   5.508703   0.012844   0.000102  -5.451282   1.392175   2.189442   1.048348  -0.001252   0.002482
 -2.373526   0.931366   3.972489  -5.945993  -0.381912   0.844736   6.885226   0.017485  -0.142053   1.308781  -0.748108  -0.955356  -1.001467   0.247058   0.733284  -0.229564   0.112989   5.731891   4.392427   2.878422  14.440148   0.106805   4.264408  -0.032147   2.629923  -0.747742  -6.167741  -0.026990   0.043548  -6.701479   3.243593  -2.220455 -12.617430   0.104079  -4.276533   0.028807   2.649662   0.936129   5.613808  -0.269138  -0.850994  -0.943281  12.941142  -0.003741  -0.017730  -0.608761  -1.623128   2.568424  -8.240497   0.020913   0.033551   5.003702   0.468806  -2.714169   6.779653   0.015720  -0.000325  -6.601260   1.655448   2.664549   1.233227  -0.000963   0.002477
 -2.373049   0.931755   3.972239  -7.007971  -0.418882   0.911583   7.987558  -0.043713  -0.152670   1.540097  -0.934536  -1.123466  -1.157533   0.284863   0.857950  -0.283541   0.216434   7.479001   5.110531   3.653666  17.887478   0.118934   4.990199  -0.032279   3.118695  -0.604713  -6.004706  -0.046053  -0.095866  -8.658104   3.689508  -2.780780 -15.294823   0.114856  -5.020306   0.029127   3.143159   0.740763   5.273433  -0.386320  -1.022859  -1.027335  15.242450  -0.004894  -0.018141  -0.625411  -1.939348   2.989192  -9.940053   0.020930   0.036902   6.011031   0.501374  -3.315174   7.978558   0.018041  -0.001096  -7.676595   1.891750   3.112990   1.399511  -0.000647   0.002341
 -2.372644   0.931135   3.971409  -7.604970  -0.572773   0.826759   8.728783  -0.016492  -0.067267   1.620920  -1.046277  -1.178242  -1.317442   0.201969   0.839890  -0.032056   0.417819   8.739793   5.780962   4.420157  20.974509   0.126943   5.785684  -0.034730   3.499754  -0.424395  -4.813635   0.052533  -0.366588  -9.964046   4.041613  -3.345754 -18.036803   0.118646  -5.746471   0.029713   3.508556   0.482240   4.152325  -1.116405  -1.212873  -0.924261  17.664077  -0.007740  -0.021247  -0.389349  -2.195377   3.023176 -12.924245   0.014741   0.047954   6.687868   0.619194  -3.749282   8.578901   0.016973  -0.001575  -8.452578   2.014824   3.579094   1.590039  -0.000450   0.002031
 -2.372199   0.930018   3.970255  -8.112772  -0.689869   0.651276   9.457755  -0.012171   0.086676   1.673079  -1.165344  -1.180605  -1.481766   0.120829   0.822410   0.180292   0.652283   9.756934   6.361257   5.189473  23.732490   0.128257   6.539322  -0.035848   3.874560  -0.185656  -3.721198   0.119103  -0.677493 -11.028374   4.335662  -3.923686 -20.491338   0.117165  -6.438417   0.030071   3.859202   0.166346   3.113452  -1.907167  -1.387861  -0.775668  19.918468  -0.008993  -0.022258  -0.325265  -2.441996   2.978687 -14.577524   0.008645   0.046986   7.298223   0.719808  -4.089619   9.045260   0.015541  -0.001780  -9.179850   2.122645   4.016083   1.777649  -0.000246   0.001775
 -2.371720   0.928526   3.968922  -8.566850  -0.768307   0.441291  10.165051  -0.028811   0.250764   1.727155  -1.296525  -1.153764  -1.632426   0.044824   0.810548   0.359177   0.893470  10.605286   6.862503   5.942564  26.228112   0.125191   7.248867  -0.035818   4.234223   0.074730  -2.826345   0.156692  -1.005833 -11.903493   4.578516  -4.498349 -22.693788   0.112408  -7.094940   0.030062   4.197699  -0.187851   2.282854  -2.694106  -1.551581  -0.603395  22.047728  -0.009563  -0.021742  -0.262750  -2.652807   2.949555 -16.101124   0.004156   0.044124   7.869432   0.809130  -4.395400   9.459184   0.014191  -0.001819  -9.860117   2.218093   4.425195   1.951334  -0.000046   0.001572
 -2.371191   0.926743   3.967477  -8.974997  -0.822978   0.213316  10.843071  -0.058475   0.415096   1.783369  -1.434667  -1.111840  -1.768816  -0.026053   0.800666   0.513361   1.126890  11.325600   7.297506   6.666326  28.502110   0.119315   7.913426  -0.034859   4.576958   0.334928  -2.092892   0.172659  -1.333794 -12.631693   4.778901  -5.055959 -24.682594   0.105699  -7.714178   0.029636   4.522459  -0.558260   1.634641  -3.465009  -1.707545  -0.421121  24.048725  -0.009647  -0.020453  -0.205859  -2.844479   2.923965 -17.494795   0.000846   0.040417   8.411491   0.889763  -4.685758   9.839826   0.012987  -0.001788 -10.495623   2.302832   4.808021   2.112570   0.000145   0.001398
